<svg width="24" height="24" viewBox="0 0 24 24" fill="none" xmlns="http://www.w3.org/2000/svg">
<path d="M2.40591 8.71175H6.62517V21.4089H2.40591V8.71175ZM4.54378 2.59119C3.0997 2.59119 2.15625 3.53923 2.15625 4.78358C2.15625 6.00233 3.07209 6.97794 4.48856 6.97794H4.51547C5.98716 6.97794 6.90366 6.00228 6.90366 4.78358C6.87605 3.53923 5.9872 2.59119 4.54378 2.59119ZM16.9846 8.41348C14.745 8.41348 13.7416 9.64536 13.1819 10.5093V8.71175H8.96137C9.01725 9.90289 8.96137 21.4089 8.96137 21.4089H13.1819V14.3179C13.1819 13.9381 13.2095 13.5597 13.3206 13.2877C13.6261 12.5295 14.3205 11.7444 15.4853 11.7444C17.0136 11.7444 17.6239 12.9093 17.6239 14.6154V21.4088H21.8438V14.1281C21.8438 10.2281 19.7624 8.41348 16.9846 8.41348Z" fill="#94A3B8"/>
</svg>
